<svg height="496pt" viewBox="0 -17 496 496" width="496pt" xmlns="http://www.w3.org/2000/svg"><path d="m496 189.65625h-32v-21.894531c0-14.21875-9.542969-26.867188-23.207031-30.769531l-32.792969-9.367188v-14.289062c9.792969-8.792969 16-21.503907 16-35.679688v-16c0-26.472656-21.527344-48-48-48s-48 21.527344-48 48v16c0 14.167969 6.207031 26.878906 16 35.679688v14.289062l-32.792969 9.367188c-13.664062 3.894531-23.207031 16.550781-23.207031 30.769531v21.894531h-80v-21.894531c0-14.21875-9.542969-26.867188-23.207031-30.769531l-32.792969-9.367188v-14.289062c9.792969-8.792969 16-21.503907 16-35.679688v-16c0-26.472656-21.527344-48-48-48s-48 21.527344-48 48v16c0 14.167969 6.207031 26.878906 16 35.679688v14.289062l-32.792969 9.367188c-13.664062 3.894531-23.207031 16.550781-23.207031 30.769531v21.894531h-32v176h16v96h464v-96h16zm-152-128c0-17.648438 14.351562-32 32-32s32 14.351562 32 32v16c0 17.648438-14.351562 32-32 32s-32-14.351562-32-32zm32 64c5.617188 0 10.984375-1.023438 16-2.800781v8.601562c-1.984375 3.0625-7.496094 10.199219-16 10.199219s-14.015625-7.144531-16-10.199219v-8.601562c5.015625 1.777343 10.382812 2.800781 16 2.800781zm-72 42.105469c0-7.105469 4.769531-13.433594 11.609375-15.386719l32.957031-9.414062c4.640625 6.046874 13.664063 14.695312 27.433594 14.695312s22.792969-8.648438 27.433594-14.695312l32.964844 9.414062c6.832031 1.953125 11.601562 8.28125 11.601562 15.386719v21.894531h-144zm-216-106.105469c0-17.648438 14.351562-32 32-32s32 14.351562 32 32v16c0 17.648438-14.351562 32-32 32s-32-14.351562-32-32zm32 64c5.617188 0 10.984375-1.023438 16-2.800781v8.601562c-1.984375 3.0625-7.496094 10.199219-16 10.199219s-14.015625-7.144531-16-10.199219v-8.601562c5.015625 1.777343 10.382812 2.800781 16 2.800781zm-72 42.105469c0-7.105469 4.769531-13.433594 11.609375-15.386719l32.957031-9.414062c4.640625 6.046874 13.664063 14.695312 27.433594 14.695312s22.792969-8.648438 27.433594-14.695312l32.964844 9.414062c6.832031 1.953125 11.601562 8.28125 11.601562 15.386719v21.894531h-144zm416 245.894531h-88v16h88v16h-432v-16h328v-16h-328v-48h432zm16-64h-464v-144h464zm0 0"/><path d="m192 21.65625h16v16h-16zm0 0"/><path d="m224 21.65625h16v16h-16zm0 0"/><path d="m256 21.65625h16v16h-16zm0 0"/><path d="m285.65625 59.3125 29.65625-29.65625-29.65625-29.65625-11.3125 11.3125 18.34375 18.34375-18.34375 18.34375zm0 0"/><path d="m288 85.65625h16v16h-16zm0 0"/><path d="m256 85.65625h16v16h-16zm0 0"/><path d="m224 85.65625h16v16h-16zm0 0"/><path d="m221.65625 112-18.34375-18.34375 18.34375-18.34375-11.3125-11.3125-29.65625 29.65625 29.65625 29.65625zm0 0"/><path d="m184 221.65625h-128v112h128zm-16 96h-96v-80h96zm0 0"/><path d="m440 221.65625h-128v112h128zm-16 96h-96v-80h96zm0 0"/><path d="m88 253.65625h64v16h-64zm0 0"/><path d="m88 285.65625h64v16h-64zm0 0"/><path d="m344 253.65625h64v16h-64zm0 0"/><path d="m344 285.65625h64v16h-64zm0 0"/></svg>